<svg xmlns="http://www.w3.org/2000/svg" width="1280" height="720" viewBox="0 0 1280 720">
  <defs>
    <linearGradient id="wall" x1="0" y1="0" x2="0" y2="1"><stop stop-color="#dce9ed"/><stop offset="1" stop-color="#a9c0c8"/></linearGradient>
    <linearGradient id="screen" x1="0" y1="0" x2="1" y2="1"><stop stop-color="#183b52"/><stop offset="1" stop-color="#147f88"/></linearGradient>
  </defs>
  <rect width="1280" height="720" fill="url(#wall)"/>
  <rect x="345" y="65" width="590" height="330" rx="12" fill="#263540"/>
  <rect x="365" y="85" width="550" height="290" rx="5" fill="url(#screen)"/>
  <text x="640" y="205" text-anchor="middle" fill="white" font-family="sans-serif" font-size="56" font-weight="700">SceneChat</text>
  <text x="640" y="265" text-anchor="middle" fill="#bdeff0" font-family="sans-serif" font-size="25">Prepared demonstration scene</text>
  <circle cx="250" cy="290" r="68" fill="#865d46"/><rect x="166" y="360" width="170" height="260" rx="55" fill="#522d72"/>
  <circle cx="1040" cy="305" r="66" fill="#9a684d"/><rect x="958" y="372" width="165" height="245" rx="52" fill="#184b63"/>
  <rect x="110" y="530" width="1060" height="150" rx="15" fill="#d3a260"/>
  <path d="M500 540 L735 540 L780 650 L450 650 Z" fill="#354956"/>
  <rect x="515" y="555" width="205" height="84" rx="4" fill="#c9dce2"/>
  <rect x="820" y="492" width="18" height="145" fill="#272c31"/><ellipse cx="829" cy="482" rx="30" ry="42" fill="#343b40"/>
  <g fill="#eff8fa" font-family="sans-serif" font-size="18"><text x="42" y="50">Synthetic replay asset — no visitor image</text></g>
</svg>

